<svg fill="none" height="16" viewBox="0 0 16 16" width="16" xmlns="http://www.w3.org/2000/svg">
    <path d="m8 15.5c-4.14225 0-7.5-3.3577-7.5-7.5 0-4.14225 3.35775-7.5 7.5-7.5 4.1423 0 7.5 3.35775 7.5 7.5 0 4.1423-3.3577 7.5-7.5 7.5zm0-1.5c1.5913 0 3.1174-.6321 4.2426-1.7574 1.1253-1.1252 1.7574-2.6513 1.7574-4.2426s-.6321-3.11742-1.7574-4.24264c-1.1252-1.12522-2.6513-1.75736-4.2426-1.75736s-3.11742.63214-4.24264 1.75736-1.75736 2.65134-1.75736 4.24264.63214 3.1174 1.75736 4.2426c1.12522 1.1253 2.65134 1.7574 4.24264 1.7574zm.75-6.75h2.25l-3.75 5.25v-3.75h-2.25l3.75-5.25z"
          fill="#939295"/>
</svg>