<svg fill="none" height="55" viewBox="0 0 47 55" width="47" xmlns="http://www.w3.org/2000/svg"
     xmlns:xlink="http://www.w3.org/1999/xlink">
<!--    <filter id="a" color-interpolation-filters="sRGB" filterUnits="userSpaceOnUse" height="53.2141" width="46.8912"-->
<!--            x=".108765" y=".812248">-->
<!--        <feFlood flood-opacity="0" result="BackgroundImageFix"/>-->
<!--        <feGaussianBlur in="BackgroundImage" stdDeviation="3.5"/>-->
<!--        <feComposite in2="SourceAlpha" operator="in" result="effect1_backgroundBlur_2_493"/>-->
<!--        <feColorMatrix in="SourceAlpha" result="hardAlpha" type="matrix"-->
<!--                       values="0 0 0 0 0 0 0 0 0 0 0 0 0 0 0 0 0 0 127 0"/>-->
<!--        <feOffset dy="3"/>-->
<!--        <feGaussianBlur stdDeviation="7"/>-->
<!--        <feComposite in2="hardAlpha" operator="out"/>-->
<!--        <feColorMatrix type="matrix" values="0 0 0 0 0 0 0 0 0 0 0 0 0 0 0 0 0 0 0.07 0"/>-->
<!--        <feBlend in2="effect1_backgroundBlur_2_493" mode="normal" result="effect2_dropShadow_2_493"/>-->
<!--        <feBlend in="SourceGraphic" in2="effect2_dropShadow_2_493" mode="normal" result="shape"/>-->
<!--        <feColorMatrix in="SourceAlpha" result="hardAlpha" type="matrix"-->
<!--                       values="0 0 0 0 0 0 0 0 0 0 0 0 0 0 0 0 0 0 127 0"/>-->
<!--        <feOffset dx="-.3" dy="-.3"/>-->
<!--        <feGaussianBlur stdDeviation=".15"/>-->
<!--        <feComposite in2="hardAlpha" k2="-1" k3="1" operator="arithmetic"/>-->
<!--        <feColorMatrix type="matrix" values="0 0 0 0 0.513726 0 0 0 0 0.219608 0 0 0 0 0.92549 0 0 0 0.15 0"/>-->
<!--        <feBlend in2="shape" mode="normal" result="effect3_innerShadow_2_493"/>-->
<!--        <feColorMatrix in="SourceAlpha" result="hardAlpha" type="matrix"-->
<!--                       values="0 0 0 0 0 0 0 0 0 0 0 0 0 0 0 0 0 0 127 0"/>-->
<!--        <feOffset dx=".3" dy=".3"/>-->
<!--        <feGaussianBlur stdDeviation="1.15"/>-->
<!--        <feComposite in2="hardAlpha" k2="-1" k3="1" operator="arithmetic"/>-->
<!--        <feColorMatrix type="matrix" values="0 0 0 0 1 0 0 0 0 1 0 0 0 0 1 0 0 0 0.95 0"/>-->
<!--        <feBlend in2="effect3_innerShadow_2_493" mode="normal" result="effect4_innerShadow_2_493"/>-->
<!--    </filter>-->
    <linearGradient id="b">
        <stop offset=".393651" stop-color="#ffca46"/>
        <stop offset="1" stop-color="#ff9b06"/>
    </linearGradient>
    <linearGradient id="c" gradientUnits="userSpaceOnUse" x1="6.60116" x2="13.7052" xlink:href="#b" y1="29.6544"
                    y2="41.698"/>
    <linearGradient id="d" gradientUnits="userSpaceOnUse" x1="6.60116" x2="13.7052" xlink:href="#b" y1="29.6543"
                    y2="41.6979"/>
    <linearGradient id="e" gradientUnits="userSpaceOnUse" x1="6.60116" x2="13.7052" xlink:href="#b" y1="9.91241"
                    y2="21.956"/>
    <linearGradient id="f" gradientUnits="userSpaceOnUse" x1="6.60116" x2="9.27002" xlink:href="#b" y1="19.5499"
                    y2="27.6942"/>
    <linearGradient id="g" gradientUnits="userSpaceOnUse" x1="6.60116" x2="8.37101" xlink:href="#b" y1="24.9754"
                    y2="31.7265"/>
    <path d="m16.2056 9.3871h-7.84384v-3.29032c0-.6142.56027-1.09678 1.27335-1.09678h5.29719c.713 0 1.2733.48258 1.2733 1.09678z"
          fill="#8338ec"/>
    <path d="m5 36.4634c0 1.4337 1.17658 2.5366 2.57727 2.5366h9.41263c1.4567 0 2.5773-1.158 2.5773-2.5366v-7.3344h-14.5672z"
          fill="url(#c)"/>
    <path d="m5 36.4633c0 1.4337 1.17658 2.5366 2.57727 2.5366h9.41263c1.4567 0 2.5773-1.158 2.5773-2.5366v-7.3343h-14.5672z"
          fill="url(#d)"/>
    <path d="m19.5672 15.1652-3.3617-5.7781h-7.84384l-3.36166 5.7781v4.0929h14.5672z" fill="url(#e)"/>
    <path d="m18.3346 19.258h-12.10199c-.67233 0-1.23261.5377-1.23261 1.1828v3.1183c0 .6452.56028 1.1828 1.23261 1.1828h12.10199c.6723 0 1.2326-.5376 1.2326-1.1828v-3.1183c0-.6451-.5043-1.1828-1.2326-1.1828z"
          fill="url(#f)"/>
    <path d="m5 25.6882v2.4946c0 .5161.56028.9462 1.23261.9462h12.10199c.6723 0 1.2326-.4301 1.2326-.9462v-2.4946c0-.5161-.5603-.9463-1.2326-.9463h-12.10199c-.67233 0-1.23261.4302-1.23261.9463z"
          fill="url(#g)"/>
    <path d="m5 22.4641v1.0951c0 .6428.5563 1.1789 1.22544 1.1827-.66914.0031-1.22544.432-1.22544.9463v2.4946c0 .5117.55078.9389 1.21546.9461h-1.21546v7.3343c0 1.4338 1.17658 2.5367 2.57727 2.5367h9.41263c1.4567 0 2.5773-1.158 2.5773-2.5367v-7.3343h-1.2155c.6647-.0072 1.2155-.4344 1.2155-.9461v-2.4946c0-.5143-.5563-.9432-1.2255-.9463.6692-.0038 1.2255-.5399 1.2255-1.1827v-1.0951z"
          fill="#000" opacity=".4"/>
<!--    <g filter="url(#a)">-->
        <path d="m23.5544 37.0264c5.2166 0 9.4456-4.3419 9.4456-9.6978 0-7.2733-9.4456-15.5164-9.4456-15.5164s-9.4456 8.2431-9.4456 15.5164c0 5.3559 4.2289 9.6978 9.4456 9.6978z"
              fill="#8338ec" fill-opacity=".15" shape-rendering="crispEdges"/>
<!--    </g>-->
    <path d="m29.5654 28.6217c0 2.7851-2.3067 5.0428-5.1522 5.0428" stroke="#8338ec" stroke-linecap="round"
          stroke-miterlimit="10"/>
</svg>