<svg fill="none" height="18" viewBox="0 0 18 18" width="18" xmlns="http://www.w3.org/2000/svg">
    <g fill="#ffb706">
        <path d="m9.5625.55102c0-.30432-.25184-.55102-.5625-.55102s-.5625.2467-.5625.55102v1.10204c0 .30432.25184.55102.5625.55102s.5625-.2467.5625-.55102z"/>
        <path d="m13.7842 7.89915c-.2169-1.08594-.8121-2.06439-1.6838-2.76813s-1.9659-1.08909-3.09545-1.09022c-1.12959-.00112-2.22453.38206-3.09771 1.08406-.87317.702-1.47038 1.67926-1.68958 2.76477-.21919 1.08551-.04677 2.21187.48781 3.18667s1.39813 1.7375 2.4431 2.1577c.28738.1156.42471.4375.30673.719s-.4466.4161-.73398.3005c-1.28611-.5172-2.34895-1.4559-3.0069-2.6556-.65794-1.1998-.87015-2.58611-.60037-3.92212s1.00481-2.53879 2.07948-3.40279c1.07468-.86401 2.42229-1.33561 3.81256-1.33423 1.39031.00138 2.73691.47567 3.80981 1.34181 1.0729.86615 1.8054 2.07038 2.0724 3.40693s.0519 2.7224-.6085 3.9209c-.6604 1.1984-1.7252 2.135-3.0124 2.6496-.2876.115-.616-.0202-.7334-.3019-.1174-.2818.0206-.6034.3083-.7184 1.0458-.4182 1.9109-1.1791 2.4475-2.1528.5366-.9738.7114-2.0998.4944-3.18575z"/>
        <path d="m9 9.55102c.31066 0 .5625.2467.5625.55098v3.6735c0 .3043-.25184.551-.5625.551s-.5625-.2467-.5625-.551v-3.6735c0-.30428.25184-.55098.5625-.55098z"/>
        <path d="m15.4887 2.59371c.2197.21519.2197.56408 0 .77926l-.7955.77926c-.2196.21519-.5758.21519-.7955 0-.2196-.21518-.2196-.56407 0-.77926l.7955-.77926c.2197-.21518.5759-.21518.7955 0z"/>
        <path d="m17.4375 9.36735c.3107 0 .5625-.2467.5625-.55102s-.2518-.55102-.5625-.55102h-1.125c-.3107 0-.5625.2467-.5625.55102s.2518.55102.5625.55102z"/>
        <path d="m2.25 8.81633c0 .30432-.25184.55102-.5625.55102h-1.125c-.31066 0-.5625-.2467-.5625-.55102s.25184-.55102.5625-.55102h1.125c.31066 0 .5625.2467.5625.55102z"/>
        <path d="m2.60225 3.37297c-.21967-.21518-.21967-.56407 0-.77926.21967-.21518.57583-.21518.7955 0l.79549.77926c.21967.21519.21967.56408 0 .77926-.21967.21519-.57582.21519-.79549 0z"/>
        <path d="m6.1875 15.6122c0-.3043.25184-.551.5625-.551h4.5c.3107 0 .5625.2467.5625.551 0 .3044-.2518.5511-.5625.5511h-4.5c-.31066 0-.5625-.2467-.5625-.5511z"/>
        <path d="m7.3125 16.898c-.31066 0-.5625.2467-.5625.551s.25184.551.5625.551h3.375c.3107 0 .5625-.2467.5625-.551s-.2518-.551-.5625-.551z"/>
    </g>
</svg>