<svg fill="none" height="15" viewBox="0 0 14 15" width="14" xmlns="http://www.w3.org/2000/svg">
    <path d="m13.75.25v1.5c0 7.22025-4.02975 10.5-9 10.5h-2.81775c-.12225.684-.18225 1.4303-.18225 2.25h-1.5c0-1.0222.087-1.95.2595-2.799-.1725-.9705-.2595-2.2875-.2595-3.951 0-4.14225 3.35775-7.5 7.5-7.5 1.5 0 3 .75 6 0zm-6 1.5c-3.3135 0-6 2.6865-6 6 0 .2715.00225.53325.0075.7845.9405-1.4835 2.31825-2.65575 4.1205-3.6855l.744 1.302c-2.14125 1.224-3.56175 2.6145-4.29 4.599h2.418c4.51125 0 7.4032-2.97975 7.4977-8.709-1.0289.09975-1.9852.036-3.16495-.141-.8625-.12975-1.032-.15-1.33275-.15z"
          fill="#939295"/>
</svg>