<svg fill="none" height="19" viewBox="0 0 19 19" width="19" xmlns="http://www.w3.org/2000/svg">
    <path d="m7.38759 5.23883c-.00028 1.12939.29583 2.23908.85876 3.21817.56292.9791 1.37294 1.7933 2.34915 2.3613.9761.568 2.0843.8698 3.2136.8754 1.1294.0056 2.2405-.2854 3.2222-.8437-.388 4.093-3.8357 7.2955-8.03037 7.2955-4.45522 0-8.066671-3.6114-8.066671-8.0667 0-4.19463 3.202471-7.64233 7.295491-8.03033-.55373.97198-.84403 2.07172-.84216 3.19036zm-4.84 4.83997c0 1.7116.67991 3.353 1.89014 4.5632 1.21023 1.2103 2.85166 1.8902 4.5632 1.8902 1.14017-.0001 2.26007-.302 3.24577-.8752.9857-.5731 1.8021-1.3969 2.3662-2.3878-.2549.0242-.513.0363-.772.0363-4.4552 0-8.06664-3.61145-8.06664-8.06667 0-.25894.0121-.51626.0363-.77198-.99088.56412-1.81474 1.38052-2.38785 2.36622s-.87505 2.10556-.87512 3.24573zm11.42561-7.83189.6744.16859v.80667l-.6744.16859c-.2836.07093-.5426.2176-.7494.42433-.2067.20673-.3533.46575-.4243.74937l-.1686.67437h-.8066l-.1686-.67437c-.071-.28362-.2176-.54264-.4244-.74937-.2067-.20673-.4657-.3534-.7493-.42433l-.67441-.16859v-.80667l.67441-.16859c.2834-.07106.5423-.21779.7489-.42451.2065-.20672.3531-.46567.424-.74919l.1694-.674376h.8066l.1686.674376c.071.28362.2176.54264.4243.74937.2068.20673.4658.35339.7494.42433zm4.0333 4.03333.6744.16859v.80667l-.6744.16859c-.2836.07094-.5426.2176-.7493.42433s-.3534.46575-.4243.74937l-.1686.67438h-.8067l-.1686-.67438c-.0709-.28362-.2176-.54264-.4243-.74937-.2068-.20673-.4658-.35339-.7494-.42433l-.6744-.16859v-.80667l.6744-.16859c.2836-.07093.5426-.2176.7494-.42433.2067-.20673.3534-.46575.4243-.74937l.1686-.67437h.8067l.1686.67437c.0709.28362.2176.54264.4243.74937s.4657.3534.7493.42433z"
          fill="#fff"/>
</svg>