<svg fill="none" height="22" viewBox="0 0 22 22" width="22" xmlns="http://www.w3.org/2000/svg">
    <path d="m8 6c-.00035 1.40007.36673 2.77571 1.06457 3.98947.69784 1.21373 1.70203 2.22313 2.91213 2.92723s2.5838 1.0783 3.9839 1.0852c1.4.0069 2.7774-.3537 3.9944-1.0459-.481 5.074-4.755 9.044-9.955 9.044-5.523 0-10-4.477-10-10 0-5.2 3.97-9.474 9.044-9.955-.68644 1.20494-1.04632 2.56825-1.044 3.955zm-6 6c0 2.1217.84285 4.1566 2.34315 5.6569 1.50029 1.5002 3.53512 2.3431 5.65685 2.3431 1.4135-.0001 2.8017-.3744 4.0237-1.0849 1.2219-.7104 2.234-1.7317 2.9333-2.9601-.316.03-.636.045-.957.045-5.523 0-10-4.477-10-10 0-.321.015-.64.045-.957-1.22836.69932-2.24967 1.71139-2.96014 2.93333-.71048 1.22194-1.08478 2.61017-1.08486 4.02367zm14.164-9.709.836.209v1l-.836.209c-.3516.08793-.6727.26975-.929.52603-.2562.25627-.4381.57737-.526.92897l-.209.836h-1l-.209-.836c-.0879-.3516-.2698-.6727-.526-.92897-.2563-.25628-.5774-.4381-.929-.52603l-.836-.209v-1l.836-.209c.3514-.08809.6723-.26998.9284-.52625.2561-.25626.4377-.57727.5256-.92875l.21-.836h1l.209.836c.0879.3516.2698.6727.526.92897.2563.25628.5774.4381.929.52603zm5 5 .836.209v1l-.836.209c-.3516.08793-.6727.26975-.929.52603-.2562.25627-.4381.57737-.526.92897l-.209.836h-1l-.209-.836c-.0879-.3516-.2698-.6727-.526-.92897-.2563-.25628-.5774-.4381-.929-.52603l-.836-.209v-1l.836-.209c.3516-.08793.6727-.26975.929-.52603.2562-.25627.4381-.57737.526-.92897l.209-.836h1l.209.836c.0879.3516.2698.6727.526.92897.2563.25628.5774.4381.929.52603z"
          fill="#8338ec"/>
</svg>