<svg fill="none" height="19" viewBox="0 0 19 19" width="19" xmlns="http://www.w3.org/2000/svg">
    <path d="m9.32263 14.1609c-1.28365 0-2.51472-.5099-3.4224-1.4176-.90767-.9077-1.4176-2.1387-1.4176-3.4224 0-1.28364.50993-2.51472 1.4176-3.42239.90768-.90768 2.13875-1.41761 3.4224-1.41761 1.28367 0 2.51467.50993 3.42237 1.41761.9077.90767 1.4176 2.13875 1.4176 3.42239 0 1.2837-.5099 2.5147-1.4176 3.4224s-2.1387 1.4176-3.42237 1.4176zm0-1.6133c.85577 0 1.67647-.34 2.28157-.9451s.9451-1.4258.9451-2.2816c0-.85576-.34-1.67648-.9451-2.28159-.6051-.60512-1.4258-.94507-2.28157-.94507s-1.67648.33995-2.2816.94507c-.60512.60511-.94507 1.42583-.94507 2.28159 0 .8558.33995 1.6765.94507 2.2816s1.42583.9451 2.2816.9451zm-.80667-12.100029h1.61334v2.419999h-1.61334zm0 15.326629h1.61334v2.42h-1.61334zm-6.0379-12.15724 1.14063-1.14062 1.71094 1.71094-1.14063 1.14062-1.71094-1.71013zm10.83754 10.83754 1.1407-1.1406 1.7109 1.7109-1.1406 1.1407zm1.711-11.97897 1.1406 1.14143-1.7109 1.71094-1.1407-1.14062 1.711-1.71094zm-10.8376 10.83837 1.14063 1.1406-1.71094 1.711-1.14063-1.1407zm14.007-4.79966v1.61336h-2.42v-1.61336zm-15.32671 0v1.61336h-2.419995v-1.61336z"
          fill="#fff"/>
</svg>