<svg fill="none" height="22" viewBox="0 0 23 22" width="23" xmlns="http://www.w3.org/2000/svg">
    <path d="m11.4995 17c-1.59129 0-3.11741-.6321-4.24263-1.7574-1.12522-1.1252-1.75736-2.6513-1.75736-4.2426s.63214-3.11742 1.75736-4.24264 2.65134-1.75736 4.24263-1.75736c1.5913 0 3.1174.63214 4.2427 1.75736 1.1252 1.12522 1.7573 2.65134 1.7573 4.24264s-.6321 3.1174-1.7573 4.2426c-1.1253 1.1253-2.6514 1.7574-4.2427 1.7574zm0-2c1.0609 0 2.0783-.4214 2.8284-1.1716.7502-.7501 1.1716-1.7675 1.1716-2.8284 0-1.06087-.4214-2.07828-1.1716-2.82843-.7501-.75014-1.7675-1.17157-2.8284-1.17157s-2.07827.42143-2.82842 1.17157c-.75014.75015-1.17157 1.76756-1.17157 2.82843 0 1.0609.42143 2.0783 1.17157 2.8284.75015.7502 1.76752 1.1716 2.82842 1.1716zm-1-15h2v3h-2zm0 19h2v3h-2zm-7.48499-15.071 1.414-1.414 2.121 2.121-1.414 1.414-2.121-2.12zm13.43499 13.435 1.414-1.414 2.121 2.121-1.414 1.414zm2.121-14.85 1.414 1.415-2.121 2.121-1.414-1.414 2.121-2.121zm-13.43499 13.436 1.414 1.414-2.121 2.121-1.414-1.414zm17.36399-5.95v2h-3v-2zm-18.99999 0v2h-2.999998v-2z"
          fill="#ffb706"/>
</svg>